#!OML:ASF F:\VICON\USERDATA\INSTALL\rory3\rory3.ASF
:FULLY-SPECIFIED
:DEGREES
91
root 0.7882025458660654 17.935802730604916 31.664553260843853 -2.8649396867635195 -3.6178133206271026 -2.555992069239684
lfemur 4.514662263163938 -2.70413253878451 -19.97313886281022
ltibia 41.048816691489066
lfoot -6.801765041952152 -2.918288252871508
ltoes -13.110465215233454
rfemur -8.838397898400899 5.362659239222411 26.881109955602465
rtibia 33.100859091587495
rfoot -21.340505103989447 -10.165697798302954
rtoes -5.552819013975065
lowerback 9.311579551900598 -0.48685170723103044 1.9033947058512983
upperback 0.0006259160191486313 -0.34763112184861344 2.0055730259892037
thorax -5.273554505324046 -0.1825750786470986 2.1540144825804903
lowerneck -16.384084324211457 -2.794885999276545 -1.6114148331396807
upperneck 22.154232667445328 -3.42790795363729 -0.3919960576884014
head 9.822829282842296 -1.7313230862140856 -0.3436395729386842
lclavicle -3.6163629442977635e-16 5.8035628883503e-16
lhumerus -30.940137271968624 5.698572855297592 80.60781229598165
lradius 20.57358941056555
lwrist 8.186861289072521
lhand -28.84120047252642 21.330296331760714
lfingers 7.12502
lthumb -2.5064767117484257 51.17426249970787
rclavicle -3.6163629434665443e-16 5.803562888911153e-16
rhumerus -27.649973813601758 -15.927585136678578 -77.17273915597633
rradius 32.82697379585937
rwrist 2.4992608069950464
rhand -18.174791540382085 21.761260873895644
rfingers 7.12502
rthumb 8.36296227669175 -6.009735349683798
92
root 0.7866404216263184 17.92666825171374 31.982760581283948 -2.8941832318873315 -3.416012261297698 -2.741849026241177
lfemur 3.7231608156885017 -2.6735810120205867 -19.532074407415838
ltibia 43.142947835416365
lfoot -6.986905592132622 -3.06917039960265
ltoes -13.173199707782068
rfemur -7.8880124139355985 5.326585487336347 27.099200033340615
rtibia 32.47222914211974
rfoot -21.586545182182288 -10.622199682578888
rtoes -6.690861959122665
lowerback 9.353659388379228 -0.4172248855790386 2.0833456021958874
upperback -0.025138525045865417 -0.17436156100451716 2.0560046043033777
thorax -5.348438092836888 -0.10758739528522565 1.9140153406516487
lowerneck -16.36174120863521 -2.8147894045961754 -1.5755230329539796
upperneck 22.067983099201303 -3.4683903806529495 -0.3921309582091492
head 9.791606530241262 -1.7501098315570989 -0.3622448536779454
lclavicle -3.616362944265761e-16 5.803562888371198e-16
lhumerus -32.07993013876484 5.9290963063106785 80.49677372515639
lradius 20.436950098161788
lwrist 8.423902242066113
lhand -28.992109450027286 21.743643782596116
lfingers 7.12502
lthumb -2.69919147042574 51.533582143768434
rclavicle -3.6163629433729425e-16 5.80356288897187e-16
rhumerus -27.811467437537175 -15.945876959299191 -77.18435379331193
rradius 32.84275987509068
rwrist 2.4640723400333577
rhand -18.199704422325798 21.80382817468635
rfingers 7.12502
rthumb 8.286597670631124 -6.1732258062264656
93
root 0.7956804506462205 17.924819627456003 32.75262224667969 -2.9011803731347383 -3.063845885517704 -2.8290042866178435
lfemur 2.952591163878534 -2.6329232967143117 -19.18134896833223
ltibia 45.37792743108029
lfoot -7.32610203661659 -3.2446574740601566
ltoes -13.236193248508261
rfemur -6.891771310262685 5.1898272959075165 27.162486893069424
rtibia 32.00788232175148
rfoot -21.617833450684508 -10.863695997536272
rtoes -7.64084621349842
lowerback 9.360404453781928 -0.36579506291941977 2.288595545421079
upperback 0.011077378302085855 -0.10738832675334598 2.053869393883109
thorax -5.302540399419274 -0.0652237562018037 1.8025770204268667
lowerneck -16.355090133452222 -2.8402342796953417 -1.593185341603462
upperneck 21.940545224407714 -3.5193489614179305 -0.3543411645946749
head 9.70705994534315 -1.7771557050966755 -0.35265642253304924
lclavicle -3.616362944234236e-16 5.803562888392391e-16
lhumerus -32.147293648455225 6.994641359259636 80.70661939525083
lradius 20.358090483440243
lwrist 8.67551762138735
lhand -29.05343811362729 21.914285331094387
lfingers 7.12502
lthumb -2.784884793366677 51.61136441609298
rclavicle -3.6163629434312703e-16 5.803562888933215e-16
rhumerus -28.023390564016083 -16.04549725424022 -77.23988378528371
rradius 32.82713031508807
rwrist 2.591317895236749
rhand -18.22538877610068 21.74964757224533
rfingers 7.12502
rthumb 8.253648886248213 -6.257646297002743
94
root 0.8043161820951745 17.918233586564604 33.57134211554841 -3.0571184787861503 -2.788854915593908 -2.6890785236749637
lfemur 2.494556894940544 -2.6845097552143415 -19.22851456077185
ltibia 47.22131027839114
lfoot -7.706228826052051 -3.3410216741524814
ltoes -12.750745884282473
rfemur -6.01993737296208 4.95853400510291 27.008719178227103
rtibia 32.414151246822065
rfoot -21.710097347749585 -10.945992073465746
rtoes -8.940445238682678
lowerback 9.400383744970158 -0.28534990773740065 2.28276405108521
upperback 0.033480223210085716 0.054661174332032325 2.029433534685443
thorax -5.3214201803819465 -0.0018580224730823103 1.562179322152642
lowerneck -16.355853243059002 -2.864150499159508 -1.5953830538967622
upperneck 21.77517128627465 -3.569514422514522 -0.30118448258788644
head 9.654334405365052 -1.7969274746717456 -0.3402847770940613
lclavicle -3.6163629442037446e-16 5.80356288841108e-16
lhumerus -32.92837309691092 7.146650189946156 80.69367670055738
lradius 20.432720655379708
lwrist 8.852688751135029
lhand -29.139640799267113 21.85281349416535
lfingers 7.12502
lthumb -2.8607405855701167 51.52674077201615
rclavicle -3.616362943334773e-16 5.80356288899649e-16
rhumerus -28.178263093690088 -16.12745316551012 -77.41112131572557
rradius 32.77223240673548
rwrist 2.5781514691616807
rhand -18.17501113057798 21.817739260947647
rfingers 7.12502
rthumb 8.31653194708285 -6.070629153237391
95
root 0.8250701086000217 17.91558434381622 34.49692877368642 -3.127094496975315 -2.4538351090125183 -2.7178877262366172
lfemur 1.5908041638173813 -2.607413518087862 -19.002404108520206
ltibia 49.12341100088942
lfoot -8.116486978758767 -3.361829420999098
ltoes -13.55966085569792
rfemur -5.295398710764511 4.593894548182696 26.861752294770397
rtibia 33.12789313851691
rfoot -21.70216614898998 -10.95735211740747
rtoes -8.574381300252753
lowerback 9.386556098405833 -0.19346256051353083 2.4924491055847007
upperback 0.07098704081745583 0.21288643314360717 2.0352842536519837
thorax -5.284614448425038 0.08624620918876802 1.3927141108290746
lowerneck -16.35088850430553 -2.883798271288913 -1.5884853395434844
upperneck 21.719167451572996 -3.610022658805307 -0.2656424417325667
head 9.629633629120677 -1.8153510583531838 -0.33526611885554974
lclavicle -3.6163629442085197e-16 5.803562888407275e-16
lhumerus -32.69825852807063 8.009926057989832 80.97330865116928
lradius 20.450991122541282
lwrist 8.795908094688896
lhand -29.117430889408322 21.917272862984245
lfingers 7.12502
lthumb -2.807402401577078 51.63556239563704
rclavicle -3.6163629434276864e-16 5.803562888933738e-16
rhumerus -28.33413653698505 -16.260801462653422 -77.50815043366012
rradius 32.76518281984807
rwrist 2.587830557974752
rhand -18.19863805557606 21.722585578759226
rfingers 7.12502
rthumb 8.30134784676465 -6.088147125447875
